<?xml version="1.0" encoding="utf-8"?>
<!-- Generator: Adobe Illustrator 24.3.0, SVG Export Plug-In . SVG Version: 6.00 Build 0)  -->
<svg version="1.0" id="Layer_1" xmlns="http://www.w3.org/2000/svg" xmlns:xlink="http://www.w3.org/1999/xlink" x="0px" y="0px"
	 viewBox="0 0 471.8 69.7" style="enable-background:new 0 0 471.8 69.7;" xml:space="preserve">
<style type="text/css">
	.st0{fill:#034638;}
</style>
<g>
	<g>
		<path class="st0" d="M91,50.7h-2.2L77.9,17.4h2.7l9.4,28.9l9.4-28.9h2.7L91,50.7z"/>
		<path class="st0" d="M132.5,50.7l-2.9-8.1h-15.5l-2.9,8.1h-2.7l12.3-33.3h2.2l12.3,33.3H132.5z M121.9,20.8l-7,19.6h13.9
			L121.9,20.8z"/>
		<path class="st0" d="M161.6,45c-0.5,1.2-1.1,2.3-2,3.2c-0.9,0.9-1.9,1.6-3.1,2.1c-1.2,0.5-2.6,0.7-4.1,0.7c-3,0-5.4-1-7.3-2.9
			l1.7-1.7c0.6,0.6,1.3,1.2,2.2,1.6c0.8,0.5,1.9,0.7,3.4,0.7c2.4,0,4.2-0.7,5.5-2.2c1.3-1.5,1.9-3.5,1.9-6.2v-23h2.5v23.5
			C162.3,42.4,162.1,43.8,161.6,45z"/>
		<path class="st0" d="M198.8,50.7l-8-15.3h-9.2v15.3h-2.5V17.4h12.7c1.3,0,2.6,0.2,3.8,0.6c1.2,0.4,2.2,1,3,1.7
			c0.9,0.7,1.5,1.7,2,2.8c0.5,1.1,0.7,2.4,0.7,3.8c0,2.5-0.7,4.5-2.1,6.1c-1.4,1.5-3.3,2.5-5.6,2.9l8,15.4H198.8z M198.3,23.4
			c-0.4-0.8-0.9-1.5-1.5-2.1c-0.7-0.6-1.4-1-2.3-1.2c-0.9-0.3-1.9-0.4-2.9-0.4h-9.8v13.5h9.8c1.1,0,2-0.1,2.9-0.4
			c0.9-0.3,1.7-0.7,2.3-1.2c0.7-0.6,1.2-1.3,1.5-2.1c0.4-0.8,0.5-1.8,0.5-3C198.8,25.2,198.7,24.2,198.3,23.4z"/>
		<path class="st0" d="M236.5,50.7l-2.9-8.1h-15.5l-2.9,8.1h-2.7l12.3-33.3h2.2l12.3,33.3H236.5z M225.8,20.8l-7,19.6h13.9
			L225.8,20.8z"/>
		<path class="st0" d="M292,43.7c-0.4,1.3-1.1,2.4-2.1,3.5c-1.1,1.2-2.4,2.2-3.9,2.8c-1.5,0.7-3.1,1-4.8,1c-1.6,0-3.1-0.3-4.5-0.9
			c-1.4-0.6-2.7-1.4-3.8-2.5c-0.7-0.7-1.3-1.5-1.8-2.3c-0.4-0.8-0.7-1.7-0.9-2.7c-0.2-1-0.3-2.2-0.4-3.6c0-1.4,0-3,0-4.9
			s0-3.5,0-4.8c0-1.4,0.1-2.6,0.4-3.6c0.2-1,0.5-1.9,0.9-2.8c0.4-0.8,1-1.6,1.8-2.3c1.1-1.1,2.4-1.9,3.8-2.5
			c1.4-0.6,2.9-0.9,4.5-0.9c1.5,0,2.8,0.2,4.1,0.7c1.3,0.5,2.4,1.1,3.4,2c1,0.8,1.8,1.9,2.5,3.1c0.7,1.2,1.1,2.5,1.4,4H290
			c-0.5-2.3-1.5-4.1-3.1-5.5c-1.6-1.3-3.5-2-5.7-2c-1.2,0-2.3,0.2-3.4,0.7c-1.1,0.4-2.1,1.1-2.9,1.9c-0.6,0.6-1.1,1.2-1.4,1.9
			c-0.3,0.7-0.6,1.5-0.8,2.4c-0.2,0.9-0.3,2-0.3,3.3c0,1.3-0.1,2.8-0.1,4.6c0,1.8,0,3.3,0.1,4.6c0,1.3,0.2,2.4,0.3,3.3
			c0.2,0.9,0.4,1.7,0.8,2.4c0.3,0.7,0.8,1.3,1.4,1.9c0.8,0.8,1.8,1.5,2.9,1.9c1.1,0.4,2.2,0.7,3.4,0.7c1.3,0,2.6-0.3,3.8-0.8
			c1.2-0.5,2.3-1.3,3.1-2.4c0.7-0.9,1.2-1.9,1.5-2.9c0.3-1,0.5-2.3,0.5-3.7v-3h-8.9v-2.2h11.5v5.4C292.6,40.9,292.4,42.4,292,43.7z"
			/>
		<path class="st0" d="M308.5,50.7V17.4h2.5v31.1h17.7v2.2H308.5z"/>
		<path class="st0" d="M361.9,38.9c0,1.4-0.1,2.6-0.4,3.6c-0.2,1-0.5,1.9-0.9,2.7c-0.4,0.8-1,1.6-1.8,2.3c-1.1,1.1-2.4,1.9-3.8,2.5
			c-1.4,0.6-2.9,0.9-4.5,0.9c-1.6,0-3.1-0.3-4.5-0.9c-1.4-0.6-2.7-1.4-3.8-2.5c-0.7-0.7-1.3-1.5-1.8-2.3c-0.4-0.8-0.7-1.7-0.9-2.7
			c-0.2-1-0.3-2.2-0.4-3.6c0-1.4,0-3,0-4.9s0-3.5,0-4.8c0-1.4,0.1-2.6,0.4-3.6c0.2-1,0.5-1.9,0.9-2.8c0.4-0.8,1-1.6,1.8-2.3
			c1.1-1.1,2.4-1.9,3.8-2.5c1.4-0.6,2.9-0.9,4.5-0.9c1.6,0,3.1,0.3,4.5,0.9c1.4,0.6,2.7,1.4,3.8,2.5c0.7,0.7,1.3,1.5,1.8,2.3
			c0.4,0.8,0.7,1.7,0.9,2.8c0.2,1,0.3,2.2,0.4,3.6c0,1.4,0,3,0,4.8S361.9,37.6,361.9,38.9z M359.4,29.5c0-1.3-0.2-2.4-0.3-3.3
			c-0.2-0.9-0.4-1.7-0.8-2.4c-0.3-0.7-0.8-1.3-1.4-1.9c-0.8-0.8-1.8-1.5-2.9-1.9c-1.1-0.4-2.2-0.7-3.4-0.7c-1.2,0-2.3,0.2-3.4,0.7
			c-1.1,0.4-2.1,1.1-2.9,1.9c-0.6,0.6-1.1,1.2-1.4,1.9c-0.3,0.7-0.6,1.5-0.8,2.4c-0.2,0.9-0.3,2-0.3,3.3c0,1.3-0.1,2.8-0.1,4.6
			c0,1.8,0,3.3,0.1,4.6c0,1.3,0.2,2.4,0.3,3.3c0.2,0.9,0.4,1.7,0.8,2.4c0.3,0.7,0.8,1.3,1.4,1.9c0.8,0.8,1.8,1.5,2.9,1.9
			c1.1,0.4,2.2,0.7,3.4,0.7c1.2,0,2.3-0.2,3.4-0.7c1.1-0.4,2.1-1.1,2.9-1.9c0.6-0.6,1.1-1.2,1.4-1.9c0.3-0.7,0.6-1.5,0.8-2.4
			c0.2-0.9,0.3-2,0.3-3.3c0-1.3,0.1-2.8,0.1-4.6C359.4,32.3,359.4,30.8,359.4,29.5z"/>
		<path class="st0" d="M399.7,45.6c-0.5,1.1-1.1,2.1-2,2.8c-0.9,0.8-1.9,1.3-3.1,1.7c-1.2,0.4-2.5,0.6-4,0.6H378V17.4h12.3
			c1.4,0,2.7,0.2,3.8,0.6c1.2,0.4,2.2,1,3.1,1.7c0.9,0.7,1.5,1.7,2,2.7c0.5,1.1,0.7,2.3,0.7,3.7c0,1.7-0.5,3.3-1.4,4.7
			c-0.9,1.4-2.2,2.3-3.8,2.8c1.8,0.6,3.2,1.6,4.2,3c1,1.4,1.5,3.1,1.5,5C400.4,43.1,400.1,44.5,399.7,45.6z M396.7,23.2
			c-0.4-0.8-0.9-1.5-1.6-2c-0.7-0.5-1.5-0.9-2.4-1.1c-0.9-0.2-1.9-0.4-2.9-0.4h-9.5v12.9h9.5c1,0,1.9-0.1,2.9-0.4
			c0.9-0.2,1.7-0.6,2.4-1.1c0.7-0.5,1.2-1.2,1.6-2c0.4-0.8,0.6-1.8,0.6-2.9C397.3,25,397.1,24,396.7,23.2z M395.8,36.6
			c-1.4-1.2-3.2-1.8-5.5-1.8h-9.8v13.7h9.8c2.3,0,4.1-0.6,5.5-1.8c1.4-1.2,2.1-2.9,2.1-5S397.2,37.8,395.8,36.6z"/>
		<path class="st0" d="M436,50.7l-2.9-8.1h-15.5l-2.9,8.1h-2.7l12.3-33.3h2.2l12.3,33.3H436z M425.3,20.8l-7,19.6h13.9L425.3,20.8z"
			/>
		<path class="st0" d="M451.6,50.7V17.4h2.5v31.1h17.7v2.2H451.6z"/>
	</g>
	<g>
		<polygon class="st0" points="9.2,0 0,16.6 18.4,16.6 		"/>
		<polygon class="st0" points="28.4,34.4 19.2,17.9 9.9,34.4 		"/>
		<polygon class="st0" points="39,17.9 29.8,34.4 48.3,34.4 		"/>
		<polygon class="st0" points="29.1,35.7 19.9,52.3 38.3,52.3 		"/>
		<polygon class="st0" points="49,0 39.8,16.6 58.2,16.6 		"/>
		<polygon class="st0" points="49,34 58.2,17.4 39.8,17.4 		"/>
		<polygon class="st0" points="0,17.4 9.2,34 18.4,17.4 		"/>
		<polygon class="st0" points="39,51.8 48.3,35.3 29.8,35.3 		"/>
		<polygon class="st0" points="9.9,35.3 19.2,51.8 28.4,35.3 		"/>
		<polygon class="st0" points="29.1,69.7 38.3,53.1 19.9,53.1 		"/>
	</g>
</g>
</svg>
